<?xml version="1.0" standalone="no"?>
<!DOCTYPE svg PUBLIC "-//W3C//DTD SVG 20010904//EN"
 "http://www.w3.org/TR/2001/REC-SVG-20010904/DTD/svg10.dtd">
<svg version="1.0" xmlns="http://www.w3.org/2000/svg"
 width="300.000000pt" height="300.000000pt" viewBox="0 0 300.000000 300.000000"
 preserveAspectRatio="xMidYMid meet">

<g transform="translate(0.000000,300.000000) scale(0.100000,-0.100000)"
fill="#000000" stroke="none">
<path d="M1230 2849 c0 -5 -8 -9 -17 -9 -10 0 -25 -5 -33 -11 -13 -9 -13 -10
0 -8 29 3 40 -1 40 -16 0 -23 47 -19 60 5 7 12 16 17 28 13 12 -4 14 -3 7 5
-14 15 -85 33 -85 21z"/>
<path d="M1875 2428 c-40 -21 -41 -24 -10 -30 11 -1 26 -9 34 -16 14 -13 43
-8 73 12 14 10 11 14 -22 32 -37 21 -38 21 -75 2z"/>
<path d="M2622 2382 l-32 -18 43 -21 43 -21 39 20 39 20 -35 19 c-42 23 -56
23 -97 1z"/>
<path d="M542 2346 c-31 -15 -24 -40 13 -42 46 -2 51 -4 35 -14 -11 -7 -4 -14
33 -30 43 -19 50 -20 65 -7 9 8 26 17 37 19 15 3 7 11 -34 32 -52 27 -101 40
-101 27 0 -3 -11 -6 -26 -6 l-25 0 22 18 c24 19 16 20 -19 3z"/>
<path d="M2440 2315 c-14 -16 -3 -20 19 -6 8 5 9 11 3 15 -5 3 -15 -1 -22 -9z"/>
<path d="M2167 1984 l-667 -334 -250 125 -250 125 0 -50 c0 -48 1 -50 40 -70
23 -12 40 -28 40 -38 0 -13 2 -14 9 -4 6 10 14 9 39 -5 l32 -18 0 -97 c0 -54
-2 -98 -5 -98 -3 0 -75 35 -160 77 l-155 78 0 47 c0 27 2 48 5 48 4 0 19 -7
35 -15 l30 -16 0 54 c0 53 -1 54 -40 72 -39 18 -40 19 -40 69 l0 52 -101 49
c-56 28 -106 49 -110 47 -5 -1 -9 3 -9 9 0 5 -5 7 -10 4 -5 -3 -10 -2 -10 2 0
5 -21 19 -47 32 l-48 23 43 21 43 21 -43 22 -42 22 -43 -21 c-42 -21 -43 -22
-43 -72 l0 -51 85 -42 85 -42 0 -50 c0 -27 -2 -50 -5 -50 -3 0 -41 18 -85 40
l-80 40 0 -50 0 -50 -40 20 -40 20 0 103 0 103 -45 22 -45 22 0 -100 c0 -55
-3 -100 -7 -100 -5 1 -19 7 -33 15 -14 8 -28 14 -32 15 -5 0 -8 -299 -8 -665
l0 -665 670 -335 670 -335 670 335 670 335 0 820 c0 451 -1 820 -2 819 -2 0
-303 -151 -671 -335z m-1597 -216 c0 -41 0 -41 -24 -32 -9 3 -12 12 -8 22 5
15 4 15 -11 3 -23 -18 -25 -14 -19 35 l4 42 29 -17 c24 -13 29 -23 29 -53z"/>
<path d="M1123 2133 c-18 -9 -33 -19 -33 -23 0 -3 16 -14 35 -23 34 -16 37
-16 77 4 l42 21 -35 19 c-41 22 -45 22 -86 2z"/>
<path d="M1097 1658 c19 -21 31 -25 14 -5 -6 8 -9 16 -6 19 3 2 -2 5 -10 5
-13 0 -13 -3 2 -19z"/>
</g>
</svg>
